<?xml version="1.0" encoding="UTF-8"?>
<svg width="2512px" height="9833px" viewBox="0 0 2512 9833" version="1.1" xmlns="http://www.w3.org/2000/svg" xmlns:xlink="http://www.w3.org/1999/xlink">
    <!-- Generator: Sketch 55.2 (78181) - https://sketchapp.com -->
    <title>Atoms/Pattern/Home-Dark</title>
    <desc>Created with Sketch.</desc>
    <g id="Atoms/Pattern/Home-Dark" stroke="none" stroke-width="1" fill="none" fill-rule="evenodd" opacity="0.26">
        <path d="M1586.81531,7072.30303 C1608.11664,7088.46646 1672.71037,7129.09993 1645.77132,7163.27603 C1637.80457,7153.46002 1628.95816,7144.04385 1620.08177,7135.04751 C1516.73382,7030.46005 1366.35499,6979.9606 1220.85418,7000.88209 C1181.62014,7006.52979 1144.75513,7020.0143 1106.15084,7028.24096 C1073.11579,7035.38036 1039.47191,7039.33354 1005.68171,7040.04616 C938.163306,7041.21589 871.184845,7027.83111 809.301595,7000.80212 C769.250488,6983.10663 731.627093,6960.36128 697.347137,6933.11965 C681.342719,6920.51443 666.045702,6907.0361 651.525777,6892.74608 C639.220783,6880.60102 632.643458,6863.53796 644.638579,6848.21419 C736.311287,6960.2986 882.841679,7021.97351 1026.71315,7014.64649 C1107.4703,7010.52816 1182.26987,6977.41163 1263.01703,6972.3237 C1332.76378,6967.93312 1402.62077,6978.97413 1467.6138,7004.66055 C1510.22618,7021.70869 1550.32633,7044.46406 1586.81531,7072.30303 Z M1515.3044,7080.36975 C1534.55657,7091.96504 1569.97216,7109.43793 1554.20857,7137.59647 C1482.44951,7079.62712 1393.70587,7046.70762 1301.50137,7043.85461 C1250.782,7042.33522 1202.24175,7051.28158 1153.89142,7065.84566 C1105.02872,7080.61659 1054.2592,7088.12053 1003.21271,7088.1166 C960.979893,7088.04663 919.926593,7081.64923 878.713359,7073.1227 C715.509749,7034.81828 577.006091,6920.39483 508.723868,6767.25712 C435.873503,6603.91357 449.947778,6408.86292 546.458518,6258.00428 C594.433282,6183.33008 659.81559,6121.41567 736.99101,6077.57768 C779.893558,6053.31755 825.085174,6039.31325 871.066469,6022.60005 C911.513459,6007.90065 949.769701,5987.76029 984.780211,5962.7344 C1126.12271,5861.64552 1200.86231,5685.71709 1174.60299,5513.78703 C1149.40324,5348.77415 1034.04017,5206.27212 877.803729,5147.45605 C857.81554,5139.93355 837.340207,5133.77526 816.518659,5129.02355 C830.752869,5099.65549 865.008934,5115.26914 887.489789,5123.54578 C913.852226,5133.21101 939.280166,5145.25583 963.458885,5159.53114 C1013.84839,5189.41898 1057.89047,5229.25277 1094.9354,5274.48437 C1163.97732,5358.78008 1202.73155,5467.60581 1204.35089,5576.42155 C1207.2797,5774.47098 1083.85991,5968.26215 897.055897,6039.97298 C867.757815,6051.17842 837.080295,6058.06562 807.952144,6069.96078 C780.823676,6081.05121 754.686876,6094.42726 729.823926,6109.94451 C678.887527,6141.7538 633.773769,6182.04988 596.438186,6229.08605 C525.946862,6318.06985 487.192627,6430.40415 486.10307,6543.81802 C484.163859,6745.95579 605.974307,6935.59864 790.429272,7018.19504 C904.231614,7069.31738 1032.6922,7077.51949 1152.07216,7041.28565 C1272.76306,7004.50062 1406.17879,7014.63649 1515.3044,7080.36975 Z M1036.51916,5849.21058 C1077.48671,5798.68567 1106.20469,5739.36461 1120.42503,5675.89108 C1162.02811,5489.73681 1066.56694,5284.34036 890.138711,5205.52243 C908.711156,5180.68253 936.289937,5200.58444 955.202244,5212.85944 C981.679006,5230.04202 1006.2098,5250.05143 1028.36248,5272.53517 C1103.97173,5349.30394 1145.27492,5449.55316 1152.55196,5556.50965 C1156.49036,5614.41609 1149.86306,5672.97227 1131.18066,5728.01988 C1121.74067,5755.74124 1109.44633,5782.40691 1094.49558,5807.58751 C1082.63041,5827.61936 1065.63732,5862.935 1036.51916,5849.21058 Z M819.41748,6144.08063 C839.569282,6135.08429 867.807795,6121.00002 882.37187,6146.95946 C766.838869,6181.39545 666.259783,6271.14894 619.898643,6382.5936 C601.426157,6369.50893 607.433714,6350.1468 615.490436,6333.38362 C646.870303,6276.10018 690.540854,6226.47285 743.368416,6188.06274 C767.126707,6170.80817 792.613179,6156.06836 819.41748,6144.08063 Z M1470.7925,7842.28981 C1565.47399,7796.3385 1640.85333,7715.08156 1679.05778,7616.94148 C1691.35278,7626.88743 1694.23161,7643.36073 1687.49435,7657.47499 C1660.53237,7714.13983 1621.86046,7764.44294 1574.03051,7805.06495 C1539.15097,7834.67415 1499.74139,7858.48797 1457.30799,7875.59626 L1445.9726,7880.26436 C1432.05725,7885.4037 1416.46586,7879.73026 1409.1076,7866.84982 C1416.51458,7864.58074 1444.80308,7853.8551 1444.80308,7853.8551 C1453.57951,7850.29655 1462.24265,7846.44145 1470.7925,7842.28981 Z M97.2912361,4922.55754 C170.66139,4987.33119 263.633569,5028.89428 362.493354,5038.4204 C354.156745,5063.7501 328.827049,5060.23153 308.12547,5056.17318 C285.352077,5051.74422 262.934327,5045.65033 241.052755,5037.9406 C183.366221,5017.5289 129.468147,4984.90217 83.2369533,4944.12876 C72.131471,4934.26277 55.8281031,4912.74153 69.0627193,4895.45856 C78.00908,4904.31496 88.2948958,4913.72113 97.2912361,4922.55754 Z M2046.30839,9724.15428 C2140.99987,9678.20297 2216.36921,9596.94603 2254.57367,9498.80595 C2266.85867,9508.7619 2269.7375,9525.2252 2263.01024,9539.34946 C2236.04539,9596.01254 2197.37392,9646.31509 2149.54639,9686.93942 C2114.6628,9716.54298 2075.25418,9740.35623 2032.82387,9757.47072 L2021.48849,9762.13883 C2007.57069,9767.27645 1991.97855,9761.59851 1984.62348,9748.71429 C1992.03047,9746.44521 2020.31896,9735.71957 2020.31896,9735.71957 C2029.10872,9732.14769 2037.77186,9728.29259 2046.30839,9724.15428 Z M2162.33119,8954.1675 C2183.64252,8970.35092 2248.23625,9010.9544 2221.33719,9045.1305 C2213.38042,9035.32449 2204.53402,9025.90832 2195.64764,9016.91198 C2092.29968,8912.32452 1941.93085,8861.82507 1796.42004,8882.74656 C1757.196,8888.39426 1720.321,8901.87877 1681.7167,8910.10543 C1648.68512,8917.24535 1615.04451,8921.19854 1581.25757,8921.91063 C1513.73477,8923.0821 1446.75199,8909.69373 1384.86746,8882.65659 C1344.81323,8864.97124 1307.189,8842.22874 1272.913,8814.98412 C1256.90562,8802.37864 1241.60529,8788.90034 1227.08164,8774.61055 C1214.77665,8762.46549 1208.19933,8745.39243 1220.19445,8730.06867 C1311.86715,8842.16307 1458.40754,8903.83798 1602.26902,8896.51096 C1683.03617,8892.39263 1757.82574,8859.2761 1838.57289,8854.18817 C1908.31872,8849.79837 1978.17483,8860.83583 2043.16967,8886.51502 C2085.77062,8903.56539 2125.85771,8926.32434 2162.33119,8954.1675 Z M1398.34198,7921.69751 C1405.70898,7919.03859 1434.98707,7909.26256 1434.98707,7909.20259 C1451.73026,7902.72522 1468.82331,7897.49735 1485.22663,7889.93043 C1616.05341,7829.63496 1713.33384,7709.66376 1745.70067,7569.35084 C1759.4044,7576.08368 1766.35261,7591.63622 1762.22395,7606.33579 C1717.70206,7758.20401 1595.58174,7881.46387 1445.81267,7931.74342 L1434.07744,7935.81176 C1417.28427,7940.98966 1399.81138,7945.13797 1383.46803,7951.80526 C1356.3396,7962.89578 1330.20281,7976.27182 1305.33981,7991.78899 C1254.40543,8023.60096 1209.29209,8063.89666 1171.95407,8110.93053 C1101.47274,8199.91433 1062.71851,8312.24863 1061.62895,8425.6625 C1059.67974,8627.80027 1181.50019,8817.44312 1365.94516,8900.02953 C1479.74851,8951.16032 1608.21412,8959.36607 1727.59804,8923.13013 C1848.28894,8886.34509 1981.70467,8896.48097 2090.82028,8962.21423 C2110.07245,8973.80951 2145.48804,8991.28241 2129.72446,9019.331 C2057.95855,8961.3856 1969.2131,8928.49703 1877.01726,8925.67909 C1826.30788,8924.14971 1777.75763,8933.10607 1729.4173,8947.67015 C1680.55428,8962.43966 1629.78497,8969.94357 1578.73859,8969.94109 C1536.49578,8969.87112 1495.45247,8963.47372 1454.23924,8954.94719 C1291.03563,8916.67276 1152.53197,8802.2593 1084.23975,8649.14159 C1011.38939,8485.79803 1025.47366,8290.74738 1121.9844,8139.88875 C1169.95638,8065.21224 1235.33932,8003.29722 1312.51689,7959.46214 C1340.29559,7943.73854 1369.0439,7932.33318 1398.34198,7921.69751 Z M2211.59115,8931.00692 C2347.96568,9045.03054 2420.926,9223.5879 2402.59345,9400.49594 C2391.74787,9505.03341 2350.87449,9605.74245 2283.90174,9686.95941 C2256.81757,9719.91145 2226.04209,9749.64721 2192.17905,9775.58336 C2176.28551,9787.70842 2146.66756,9810.24925 2127.20548,9820.79496 C2104.19484,9833.26989 2093.53918,9839.00756 2069.95877,9822.74417 C2217.06892,9760.4895 2326.84427,9628.31327 2365.40858,9472.98645 C2393.66709,9359.14276 2383.83109,9238.61179 2335.02094,9131.6553 C2287.17041,9026.76797 2204.21415,8939.4335 2101.66587,8886.75493 C2042.23438,8856.29928 1977.5757,8837.36701 1911.10339,8830.95762 C1871.4068,8827.19202 1831.40101,8828.22573 1791.95186,8834.03637 C1755.79657,8839.3742 1721.94034,8850.95949 1686.69468,8859.83588 C1613.80433,8878.19841 1535.75608,8877.59865 1462.99568,8858.83628 C1429.96419,8850.30363 1398.12008,8837.7023 1368.19424,8821.32154 C1346.63301,8809.48636 1295.39386,8787.69522 1313.64643,8755.15846 C1419.50386,8841.06581 1560.40067,8870.41032 1691.75262,8833.90642 C1737.14415,8821.27156 1780.92634,8809.29644 1828.25709,8806.03776 C1873.98051,8802.89962 1919.91821,8805.8577 1964.86152,8814.83418 C2006.01478,8824.61021 2045.90855,8834.79606 2084.81273,8852.03905 C2130.5446,8872.32712 2173.21678,8898.90681 2211.59115,8931.00692 Z M1551.6796,7938.9305 L1542.11349,7944.00843 C1511.26604,7959.88197 1478.40941,7971.66718 1445.04298,7981.99298 C1393.75384,7997.86652 1345.36353,8021.60686 1302.04115,8053.42392 C1211.87701,8119.85103 1148.39643,8216.29131 1123.03397,8325.37329 C1101.91256,8315.21742 1104.41155,8294.05603 1110.40911,8275.4536 C1137.54807,8190.96797 1187.89758,8118.30753 1254.35055,8059.90128 C1290.70528,8027.78899 1331.75222,8001.41877 1376.07104,7981.7031 C1418.9436,7962.79079 1465.35472,7954.06434 1508.10733,7934.80217 L1509.3968,7934.20242 C1648.94004,7869.50874 1752.63785,7741.08098 1789.8827,7591.072 C1818.1512,7477.22831 1808.30521,7356.69734 1759.50506,7249.74085 C1711.64453,7144.9035 1628.68827,7057.56903 1526.14999,7004.89046 C1466.71552,6974.43338 1402.05328,6955.50106 1335.57751,6949.09315 C1295.88068,6945.32609 1255.87431,6946.36316 1216.42598,6952.1819 C1180.27069,6957.51973 1146.42446,6969.09502 1111.1688,6977.97141 C1038.28844,6996.34393 960.240194,6995.73418 887.469797,6976.97181 C854.440088,6968.44349 822.598753,6955.84194 792.678357,6939.45707 C771.117128,6927.63188 719.877972,6905.83075 738.130547,6873.29399 C843.985627,6959.19807 984.877865,6988.54239 1116.22674,6952.04195 C1161.61827,6939.40709 1205.41046,6927.43197 1252.73121,6924.17329 C1298.45838,6921.03327 1344.40007,6923.99475 1389.34564,6932.97971 C1430.4989,6942.74574 1470.40266,6952.93159 1509.29684,6970.17458 C1555.02787,6990.47004 1597.70236,7017.04908 1636.08526,7049.14246 C1772.44979,7163.17607 1845.41011,7341.69345 1827.06757,7518.62147 C1816.22199,7623.16894 1775.34861,7723.86798 1708.37586,7805.09494 C1681.2915,7838.04384 1650.516,7867.77626 1616.65317,7893.70889 C1600.74964,7905.83396 1571.13169,7928.37479 1551.6796,7938.9305 Z M2337.74983,9488.26024 C2293.21795,9640.07848 2171.11762,9763.38832 2021.32855,9813.65787 L2009.59332,9817.73621 C1995.32913,9821.78456 1980.23527,9816.2868 1973.86786,9802.87226 C1981.42478,9801.12297 2010.50295,9791.12703 2010.50295,9791.12703 C2027.25614,9784.64967 2044.33919,9779.4218 2060.75251,9771.85487 C2191.5693,9711.5594 2288.85972,9591.5882 2321.22655,9451.27528 C2334.92722,9458.01108 2341.87424,9473.56097 2337.74983,9488.26024 Z M32.3776426,4933.99288 C48.3111609,4950.05635 67.1634919,4967.32932 84.9862417,4981.08373 C206.306889,5074.84559 366.73163,5112.48028 519.33955,5077.04469 C568.439576,5065.66932 615.080603,5050.42552 665.729999,5046.0573 C767.871764,5037.56183 870.354647,5057.78835 961.609637,5104.45354 C983.186689,5115.59723 1003.96777,5128.21884 1023.80434,5142.22818 C1040.48755,5154.03337 1062.27869,5167.36795 1074.66365,5183.86124 C1073.36418,5181.77209 1078.73199,5187.17989 1079.85154,5188.17948 C1082.94028,5191.00833 1086.10899,5193.7872 1089.10777,5196.65603 C1099.58351,5206.572 1109.45949,5217.18768 1118.98562,5228.01328 C1179.22949,5296.45421 1221.00217,5379.14285 1240.34625,5468.24555 C1287.80694,5686.46678 1191.61607,5917.90264 1004.15233,6039.54315 C962.379324,6066.64213 916.897826,6085.46447 869.507104,6100.12851 C818.207972,6116.00205 769.817657,6139.74239 726.49528,6171.55945 C636.334382,6237.98963 572.854667,6334.42861 547.488099,6443.50882 C526.376687,6433.35295 528.87567,6412.19156 534.873231,6393.58913 C562.012191,6309.11349 612.361709,6236.44306 678.814676,6178.03682 C715.175163,6145.93215 756.220884,6119.56271 800.535161,6099.83863 C843.417717,6080.90633 889.199093,6070.19069 931.951702,6050.91853 C1079.82155,5984.25564 1188.55732,5839.8144 1219.15487,5681.5088 C1248.87278,5527.75135 1205.94024,5365.31742 1103.37197,5246.86561 C977.80305,5101.92457 777.474542,5037.15092 590.440626,5082.53246 C541.370588,5094.44761 494.589618,5108.91173 443.82027,5112.78015 C342.535044,5120.25016 241.160103,5099.51847 150.939412,5052.88452 C130.136015,5042.01069 110.082781,5029.75835 90.9138304,5016.20944 C86.6155789,5013.16068 80.717978,5008.56255 74.3205805,5003.37466 C55.8680868,4988.44073 33.1673213,4968.69877 32.017789,4967.64919 C28.5991796,4964.49048 21.6819935,4956.89357 18.3633435,4953.65489 C4.46899563,4938.43108 -5.11710481,4921.68789 8.80723086,4904.9547 C15.8940625,4915.23447 23.7749531,4924.94354 32.3776426,4933.99288 Z M601.686052,206.216113 C601.219575,214.426106 600.996332,222.632768 601.016324,230.836097 C601.526117,433.653593 757.502666,609.392103 958.540885,634.072064 C948.974777,659.451739 921.695874,652.004769 901.704006,647.006802 C879.94631,641.640164 858.656129,634.530066 838.039904,625.745451 C681.303664,558.872654 573.767409,393.969736 576.856152,223.708997 C577.116047,210.594332 580.424701,184.285034 597.847613,181.816038 C599.167076,181.686091 603.845173,181.686091 603.845173,181.686091 C603.845173,181.686091 601.875974,202.827491 601.686052,206.216113 Z M1380.67916,376.40688 C1401.87054,316.611205 1414.2655,258.21496 1408.48785,194.530866 C1401.9705,123.149903 1376.45088,56.5270052 1336.99693,-5.68434189e-14 L1365.60529,-5.68434189e-14 C1387.83388,34.8168961 1404.90725,72.6671993 1416.29467,112.374287 C1430.9085,163.721075 1435.90711,217.326493 1431.03868,270.489966 C1428.61966,296.769276 1424.14148,323.458419 1416.7145,348.808107 C1413.33588,360.333419 1407.98805,370.559259 1395.99293,374.90749 C1395.21325,375.187376 1380.38928,377.236543 1380.67916,376.40688 Z M1386.58676,474.576945 C1459.70701,358.933988 1476.62013,212.963368 1432.12823,83.6059896 C1422.09464,54.450062 1409.02833,26.427866 1393.14409,2.84217094e-14 L1420.13311,2.84217094e-14 C1442.17442,39.6807351 1458.62991,82.2154286 1469.03322,126.398582 C1484.46694,192.121846 1484.17706,260.104191 1470.66256,326.137329 C1464.07524,358.274256 1454.92896,389.861407 1442.08418,420.099106 C1432.78796,441.990201 1418.89362,486.492098 1386.58676,474.576945 Z M1377.04064,679.723493 C1399.66144,654.243858 1437.46606,681.492773 1458.83737,694.597442 C1497.94293,718.405481 1533.78579,747.198716 1565.46399,780.252598 C1620.0118,837.149453 1662.33459,905.491652 1687.98415,980.091305 C1736.33448,1120.67412 1723.70962,1278.71983 1653.73808,1409.91646 C1617.41286,1478.11871 1566.77346,1535.13552 1506.79786,1583.34591 C1434.98707,1640.08283 1351.95085,1672.99943 1262.41727,1688.86298 C1175.05281,1704.34668 1093.2261,1749.50831 1032.39084,1813.89212 C999.640151,1848.57352 973.018818,1888.56636 953.66287,1932.16401 C925.254426,1913.21172 953.333004,1877.50624 965.967864,1857.89422 C981.948224,1833.02561 1000.55413,1809.94584 1021.46529,1789.05223 C1065.63732,1745.02014 1120.03519,1710.40422 1178.16155,1687.97334 C1239.49659,1664.28298 1305.71966,1660.35458 1367.08469,1636.36434 C1425.80081,1613.3537 1478.93919,1579.01767 1525.43028,1536.54494 C1685.31524,1390.52434 1737.12416,1152.58114 1652.07876,953.362179 C1599.86,831.051934 1499.99063,730.762731 1377.04064,679.723493 Z M533.403828,170.870491 C537.756653,132.11513 547.211333,94.1048277 561.52239,57.8264766 C569.021163,38.5443744 577.917874,19.8355559 588.141561,1.84924774 C588.501415,1.22949985 588.881261,0.609751957 589.261106,1.70530257e-13 L617.639562,1.70530257e-13 C548.680404,116.570102 535.482809,257.876077 581.662936,385.199876 C627.843064,512.523676 728.558297,612.51366 856.212512,657.772422 C882.7917,667.1686 910.160566,674.935441 938.359095,676.654741 C966.778037,678.432194 995.273909,678.625748 1023.71437,677.234505 C1049.30396,675.935034 1074.07389,672.096596 1099.28363,668.498059 C1163.73741,659.281808 1230.00046,661.141052 1293.28471,676.704721 C1346.95288,689.899353 1398.67184,710.371026 1445.22291,740.358827 C1467.55549,754.767519 1488.60183,771.078189 1508.12732,789.108996 C1525.67018,805.262425 1555.1282,828.572942 1535.39622,854.482402 C1428.43973,727.014255 1257.44929,664.529674 1093.57595,694.097646 C1015.32778,704.763307 933.70099,708.301867 857.801865,683.162094 C727.954686,640.159587 621.058171,541.47973 568.079722,415.361034 C535.804416,338.170225 523.865445,253.991702 533.403828,170.870491 Z M1875.63782,3306.04512 C1890.1719,3282.2548 1901.7472,3256.29536 1910.85349,3229.98606 C1943.63016,3135.2446 1941.33109,3029.81749 1904.05626,2936.71536 C1863.68268,2835.88638 1783.72521,2753.14004 1684.45559,2709.15793 C1706.73652,2680.39963 1746.84021,2713.99596 1767.71172,2728.28015 C1792.87467,2745.46417 1816.09206,2765.33654 1836.95355,2787.54604 C1911.23334,2866.72384 1957.21463,2978.25846 1959.09387,3086.91426 C1960.3924,3181.39259 1931.02174,3273.74496 1875.38792,3350.11719 C1867.38118,3361.04275 1858.66472,3372.11824 1844.08065,3373.58765 C1837.0735,3374.28736 1831.36583,3369.12946 1825.5382,3369.12946 C1842.56127,3348.48786 1861.64351,3328.9658 1875.63782,3306.04512 Z M1084.07982,2465.40709 C1063.93801,2451.30283 1037.31884,2435.30933 1050.16361,2407.26074 C1142.8859,2494.03544 1286.79735,2537.19788 1412.01641,2513.73743 C1411.17676,2536.6581 1392.66429,2543.14547 1373.48209,2544.72482 C1308.21864,2550.29256 1241.71569,2540.05672 1180.63054,2516.66624 C1146.47506,2503.58549 1114.05012,2486.37096 1084.07982,2465.40709 Z M1356.70891,3888.30826 C1330.45959,3924.29362 1310.37776,3965.94668 1297.14314,4008.33943 C1234.42866,4209.29769 1334.87779,4431.52728 1527.54942,4516.96253 C1508.00737,4542.20226 1477.47978,4519.13165 1457.86776,4506.75668 C1435.83669,4492.8863 1415.12788,4477.01925 1396.00293,4459.35596 C1246.34381,4320.96226 1209.42883,4085.96786 1312.15704,3909.73954 C1322.3229,3894.02594 1335.98734,3879.31192 1356.70891,3888.30826 Z M1377.8703,1578.00808 C1504.75869,1516.88294 1599.08032,1398.96091 1630.74744,1261.69675 C1650.55938,1270.27326 1648.03041,1290.45505 1642.1328,1307.59808 C1634.07309,1331.03877 1624.5139,1353.93675 1613.51445,1376.15019 C1594.57593,1414.69563 1570.82244,1450.68191 1542.8232,1483.24662 C1499.35562,1533.4619 1445.6576,1573.80699 1385.32727,1601.57849 C1351.12822,1617.22854 1315.35687,1629.18472 1278.62068,1637.24398 C1240.00639,1645.73053 1202.25175,1652.6877 1165.26679,1667.32174 C1023.58443,1723.44891 915.968204,1848.46806 881.682151,1996.96765 C861.620312,1986.64185 864.089308,1967.45965 868.797392,1949.1471 C896.885966,1869.33956 942.177542,1795.62955 1004.74209,1738.2329 C1049.77195,1697.00805 1102.34969,1664.88099 1159.5791,1643.62139 C1231.49985,1616.91225 1308.12868,1611.61441 1377.8703,1578.00808 Z M1438.68557,474.896815 C1522.08164,328.346431 1521.56185,146.850262 1447.41202,-1.13686838e-13 L1473.57137,-1.13686838e-13 C1510.28644,76.2889661 1528.77892,161.254403 1526.10001,246.009925 C1524.24076,304.426161 1511.08611,360.033541 1492.99347,415.381026 C1484.91676,440.090974 1475.50059,464.51104 1461.79616,486.722005 C1452.06013,502.455604 1438.32571,517.589448 1417.81406,509.382786 C1425.39097,498.357272 1432.07825,486.522086 1438.68557,474.896815 Z M701.005649,654.593716 C557.983829,551.575623 474.367844,378.566002 484.803599,202.347686 C489.015434,132.005617 507.227379,63.2121098 538.371807,-5.68434189e-14 L563.961398,-5.68434189e-14 C512.552311,99.5994836 494.109813,215.912168 516.790587,329.376012 C551.166603,501.136141 677.325282,646.946826 843.457701,703.443844 C924.633022,730.982006 1011.68548,736.364987 1095.63512,719.0375 C1149.53319,707.972002 1205.70034,708.261884 1259.67838,718.457736 C1288.11957,723.706785 1315.94729,731.859489 1342.7246,742.787839 C1359.87762,749.884952 1375.32134,762.069995 1369.87356,783.171411 C1358.68811,777.423749 1346.86292,772.755648 1335.29762,767.807661 C1258.50698,736.188182 1174.06819,728.034753 1092.64633,744.377192 C1045.00571,754.053256 996.715356,754.822943 948.375021,749.555086 C859.116135,739.734392 773.907347,707.024024 701.005649,654.593716 Z M1880.23595,3424.26703 C1864.47236,3441.26012 1840.56208,3470.36828 1815.26238,3450.74626 C1825.22832,3442.55959 1834.54453,3433.50327 1844.01068,3424.75683 C1862.5245,3406.53975 1879.48955,3386.81295 1894.73005,3365.78082 C2018.72961,3194.57047 2009.97317,2954.23824 1874.17841,2792.30411 C1802.39761,2706.73892 1700.45908,2649.5022 1590.20393,2632.0493 C1534.58655,2623.21289 1479.83882,2625.97177 1424.51133,2635.04808 C1358.35256,2645.86576 1290.75807,2644.27259 1225.18242,2630.34999 C1016.25741,2585.93806 848.675578,2417.82644 806.962547,2207.9918 C768.818063,2016.07987 840.398945,1808.92414 993.786548,1685.81422 C1034.65992,1653.00757 1078.18222,1624.91899 1126.62251,1604.48731 C1154.84864,1592.5831 1184.07894,1583.21656 1213.96698,1576.49869 C1244.22467,1569.70146 1274.71227,1565.60312 1304.3702,1556.14697 C1417.87403,1519.91171 1512.46555,1435.08622 1560.81588,1326.24049 C1587.05521,1343.74337 1564.75428,1374.29095 1553.06904,1393.21325 C1490.11464,1495.16178 1382.50842,1567.1225 1265.46603,1590.9828 C1206.23013,1603.05789 1150.32287,1616.74232 1096.34483,1645.28071 C1044.42595,1672.76953 997.3451,1709.77447 957.461325,1752.87694 C819.347508,1902.13622 782.162635,2125.83522 864.888982,2311.64964 C909.800713,2412.5186 987.629053,2498.53361 1084.1098,2552.36172 C1138.2833,2582.41442 1197.36949,2602.59383 1258.60882,2611.95747 C1325.95143,2622.32326 1390.02536,2615.87588 1456.66825,2604.88035 C1556.53762,2588.42704 1665.35336,2613.30692 1753.16764,2661.72723 C1838.02307,2708.62763 1907.26536,2779.37822 1952.32662,2865.22445 C2004.29548,2964.74396 2021.25858,3082.81593 1997.80812,3192.7712 C1985.43315,3250.81759 1963.91191,3307.29461 1932.00489,3357.45421 C1916.82608,3381.26002 1899.49728,3403.62451 1880.23595,3424.26703 Z M2233.80212,4772.05876 C2227.29143,4766.76758 2220.6508,4761.65299 2213.88022,4756.715 C2171.94728,4727.04707 2125.81605,4703.16678 2075.64645,4691.06171 C2036.13253,4681.52559 1996.23876,4680.7659 1955.86518,4681.66553 C1960.12345,4660.55412 1979.04575,4657.32543 1997.1084,4657.32543 C2048.2476,4658.82482 2098.74706,4669.49048 2145.72795,4689.90218 C2165.16004,4698.34874 2188.64049,4708.55459 2207.43284,4721.02952 C2207.43284,4721.02952 2221.81699,4731.33532 2226.705,4735.02382 C2238.25031,4743.75027 2240.87924,4759.43389 2233.80212,4772.05876 Z M2309.91116,4742.99058 L2309.97113,4742.98059 C2309.97113,4742.98059 2323.09579,4756.12524 2327.14415,4760.70338 C2336.74024,4771.54897 2336.72025,4786.28297 2327.29409,4797.2785 C2321.52643,4790.45128 2315.71879,4783.91394 2309.63127,4777.45656 C2281.31814,4747.39432 2249.14014,4721.22302 2213.9402,4699.62822 C2100.51634,4631.48594 1960.44332,4614.56283 1834.09472,4653.85684 C1749.25923,4679.96622 1655.25747,4679.49641 1569.83222,4657.35542 C1413.12596,4616.73194 1280.09008,4511.49475 1210.11855,4364.73445 C1159.96402,4259.88164 1145.23026,4141.57304 1168.13562,4027.62159 C1172.14013,4007.70811 1177.25944,3988.03514 1183.46939,3968.69556 C1185.4086,3962.61803 1187.54773,3956.70044 1189.77682,3950.70288 C1190.34659,3949.11353 1193.97511,3938.87769 1193.77519,3940.87688 C1197.23379,3921.18489 1210.08856,3900.09347 1219.22484,3882.53061 C1262.81711,3798.78468 1329.06016,3727.9335 1408.6078,3677.26411 C1450.00253,3650.90323 1494.80116,3630.3149 1541.76363,3616.06901 C1584.6262,3603.07429 1629.23805,3598.12631 1671.96067,3584.56182 C1848.00906,3528.68455 1982.51434,3379.81511 2021.15862,3199.71838 C2053.4055,3049.4595 2014.85119,2889.27466 1918.59034,2769.57336 C1810.46433,2635.12805 1633.70623,2559.17894 1461.66622,2579.65062 C1411.34669,2585.64818 1362.97636,2595.60413 1311.38735,2593.04517 C1259.79834,2590.48621 1208.65914,2579.07085 1160.25883,2561.15814 C1118.99218,2545.9877 1080.08419,2525.04449 1044.69584,2498.95344 C1027.21274,2485.95545 1010.64375,2471.77111 995.106011,2456.50071 C980.032143,2441.71673 962.809149,2422.78443 978.952582,2401.59305 C1063.06836,2501.87225 1187.57771,2562.91742 1318.31453,2568.41519 C1363.23626,2570.30442 1408.50784,2562.51758 1451.26045,2556.86988 C1517.88335,2548.05347 1584.43628,2552.03185 1649.40984,2569.47475 C1754.9869,2597.81323 1850.73795,2654.79005 1922.91858,2737.24651 C2042.62775,2873.59846 2085.56101,3061.09699 2037.11213,3235.95364 C2033.9934,3247.18906 2030.60478,3258.32453 2026.6064,3269.32006 C2025.21697,3273.11852 2023.74757,3276.89698 2022.34814,3280.69543 C2022.16821,3281.19523 2020.28897,3287.55265 2020.53887,3284.62384 C2017.07028,3304.31583 2004.2355,3325.39725 1995.07923,3342.9701 C1951.46697,3426.68605 1885.2739,3497.5972 1805.69627,3548.2366 C1764.94894,3574.1691 1720.90737,3594.51899 1674.74954,3608.74199 C1631.18726,3622.15653 1585.77573,3627.1445 1542.31341,3640.93889 C1366.95475,3696.59625 1232.65938,3844.59604 1193.5253,4023.87311 C1160.68865,4174.112 1198.63322,4334.35681 1294.48423,4454.47795 C1401.29078,4588.3135 1576.59946,4665.20223 1747.58991,4646.39987 C1787.99347,4641.96168 1825.0384,4629.69667 1864.48235,4620.86026 C1908.98425,4610.88432 1955.00553,4606.2662 2000.58699,4608.56527 C2048.50313,4611.0151 2095.75079,4620.87129 2140.65001,4637.78338 C2153.47146,4642.62808 2166.05967,4647.99922 2178.41465,4653.89683 C2178.41465,4653.89683 2197.11704,4662.99312 2214.46998,4672.8891 C2245.82723,4691.54151 2278.334,4711.30347 2309.91116,4742.99058 Z M2506.79107,5040.58952 C2506.79107,5040.58952 2508.80025,5064.02999 2508.97018,5070.17749 C2509.42,5084.6516 2500.10379,5096.54676 2485.83959,5098.96577 C2485.85958,5090.57919 2485.67966,5081.04306 2485.23983,5072.68646 C2476.34345,4892.80964 2373.02548,4728.9363 2213.85023,4643.77094 C2176.8153,4624.35884 2134.93234,4611.06425 2094.84864,4599.45897 C2034.29328,4581.91611 1967.26054,4579.9569 1905.09583,4588.51342 C1870.26,4593.31147 1837.35339,4603.22744 1803.66709,4612.79355 C1771.48587,4621.83068 1738.25171,4626.5765 1704.8273,4626.9078 C1652.1027,4627.59583 1599.6125,4619.77175 1549.38054,4603.73723 C1341.64504,4537.27427 1200.93228,4335.90618 1206.80989,4118.35468 C1208.80908,4043.38518 1229.01086,3967.51604 1263.78671,3901.06307 C1279.0673,3871.89077 1297.4711,3844.46437 1318.67439,3819.26635 C1335.93736,3798.79468 1367.7944,3752.08368 1398.64186,3775.58412 C1252.16144,3898.41415 1194.84476,4104.14046 1256.28976,4285.13683 C1323.87227,4484.21585 1522.46149,4615.41248 1732.04623,4600.1187 C1765.03281,4597.70968 1795.21053,4590.0428 1826.82767,4580.79656 C1860.03105,4571.08261 1894.12421,4564.72007 1928.59627,4561.80429 C1985.65306,4556.95626 2041.23045,4563.35366 2097.00776,4574.94894 C2129.47803,4582.5542 2161.18156,4593.12427 2191.71924,4606.5261 C2196.74719,4608.7352 2213.91021,4617.45165 2213.91021,4617.45165 C2377.55364,4700.06804 2487.34898,4860.66271 2506.79107,5040.58952 Z" id="Pattern/Home-Dark" fill="#1F2041"></path>
    </g>
</svg>